<?xml version="1.0" encoding="UTF-8" standalone="no"?>
<svg
   xmlns:dc="http://purl.org/dc/elements/1.1/"
   xmlns:cc="http://creativecommons.org/ns#"
   xmlns:rdf="http://www.w3.org/1999/02/22-rdf-syntax-ns#"
   xmlns:svg="http://www.w3.org/2000/svg"
   xmlns="http://www.w3.org/2000/svg"
   xmlns:xlink="http://www.w3.org/1999/xlink"
   xmlns:sodipodi="http://sodipodi.sourceforge.net/DTD/sodipodi-0.dtd"
   xmlns:inkscape="http://www.inkscape.org/namespaces/inkscape"
   width="200"
   height="110"
   id="svg2"
   version="1.1"
   inkscape:version="1.0beta2 (unknown)"
   sodipodi:docname="markdownpapers_logo.svg"
   inkscape:export-filename="/home/lruiz/Desktop/workspace/markdownpapers/parent/src/site/resources/images/Logo.png"
   inkscape:export-xdpi="90"
   inkscape:export-ydpi="90">
  <defs
     id="defs4">
    <linearGradient
       inkscape:collect="always"
       id="linearGradient5365">
      <stop
         style="stop-color:#aaeeff;stop-opacity:1;"
         offset="0"
         id="stop5367" />
      <stop
         style="stop-color:#aaeeff;stop-opacity:0;"
         offset="1"
         id="stop5369" />
    </linearGradient>
    <linearGradient
       inkscape:collect="always"
       id="linearGradient5225">
      <stop
         style="stop-color:#ffaacc;stop-opacity:1;"
         offset="0"
         id="stop5227" />
      <stop
         style="stop-color:#ffaacc;stop-opacity:0;"
         offset="1"
         id="stop5229" />
    </linearGradient>
    <linearGradient
       inkscape:collect="always"
       id="linearGradient5156">
      <stop
         style="stop-color:#aaeeff;stop-opacity:1;"
         offset="0"
         id="stop5158" />
      <stop
         style="stop-color:#aaeeff;stop-opacity:0;"
         offset="1"
         id="stop5160" />
    </linearGradient>
    <inkscape:perspective
       sodipodi:type="inkscape:persp3d"
       inkscape:vp_x="0 : 526.18109 : 1"
       inkscape:vp_y="0 : 1000 : 0"
       inkscape:vp_z="744.09448 : 526.18109 : 1"
       inkscape:persp3d-origin="372.04724 : 350.78739 : 1"
       id="perspective10" />
    <inkscape:perspective
       id="perspective2826"
       inkscape:persp3d-origin="0.5 : 0.33333333 : 1"
       inkscape:vp_z="1 : 0.5 : 1"
       inkscape:vp_y="0 : 1000 : 0"
       inkscape:vp_x="0 : 0.5 : 1"
       sodipodi:type="inkscape:persp3d" />
    <inkscape:perspective
       id="perspective3692"
       inkscape:persp3d-origin="0.5 : 0.33333333 : 1"
       inkscape:vp_z="1 : 0.5 : 1"
       inkscape:vp_y="0 : 1000 : 0"
       inkscape:vp_x="0 : 0.5 : 1"
       sodipodi:type="inkscape:persp3d" />
    <inkscape:perspective
       id="perspective5172"
       inkscape:persp3d-origin="0.5 : 0.33333333 : 1"
       inkscape:vp_z="1 : 0.5 : 1"
       inkscape:vp_y="0 : 1000 : 0"
       inkscape:vp_x="0 : 0.5 : 1"
       sodipodi:type="inkscape:persp3d" />
    <linearGradient
       inkscape:collect="always"
       xlink:href="#linearGradient5156"
       id="linearGradient5215"
       gradientUnits="userSpaceOnUse"
       x1="31.42857"
       y1="768.66565"
       x2="129.37852"
       y2="846.935" />
    <linearGradient
       inkscape:collect="always"
       xlink:href="#linearGradient5225"
       id="linearGradient5238"
       gradientUnits="userSpaceOnUse"
       x1="31.42857"
       y1="816.64789"
       x2="148.57143"
       y2="816.64789" />
    <inkscape:perspective
       id="perspective5260"
       inkscape:persp3d-origin="0.5 : 0.33333333 : 1"
       inkscape:vp_z="1 : 0.5 : 1"
       inkscape:vp_y="0 : 1000 : 0"
       inkscape:vp_x="0 : 0.5 : 1"
       sodipodi:type="inkscape:persp3d" />
    <inkscape:perspective
       id="perspective5313"
       inkscape:persp3d-origin="0.5 : 0.33333333 : 1"
       inkscape:vp_z="1 : 0.5 : 1"
       inkscape:vp_y="0 : 1000 : 0"
       inkscape:vp_x="0 : 0.5 : 1"
       sodipodi:type="inkscape:persp3d" />
    <filter
       inkscape:collect="always"
       id="filter5331"
       x="-0.12232259"
       width="1.2446452"
       y="-0.078999996"
       height="1.158"
       color-interpolation-filters="sRGB">
      <feGaussianBlur
         inkscape:collect="always"
         stdDeviation="2.2571432"
         id="feGaussianBlur5333" />
    </filter>
    <inkscape:perspective
       id="perspective5343"
       inkscape:persp3d-origin="0.5 : 0.33333333 : 1"
       inkscape:vp_z="1 : 0.5 : 1"
       inkscape:vp_y="0 : 1000 : 0"
       inkscape:vp_x="0 : 0.5 : 1"
       sodipodi:type="inkscape:persp3d" />
    <linearGradient
       inkscape:collect="always"
       xlink:href="#linearGradient5365"
       id="linearGradient5371"
       x1="0"
       y1="983.79077"
       x2="44.285717"
       y2="1052.3622"
       gradientUnits="userSpaceOnUse" />
    <inkscape:perspective
       id="perspective5386"
       inkscape:persp3d-origin="0.5 : 0.33333333 : 1"
       inkscape:vp_z="1 : 0.5 : 1"
       inkscape:vp_y="0 : 1000 : 0"
       inkscape:vp_x="0 : 0.5 : 1"
       sodipodi:type="inkscape:persp3d" />
    <filter
       color-interpolation-filters="sRGB"
       inkscape:collect="always"
       id="filter5331-3"
       x="-0.12232259"
       width="1.2446452"
       y="-0.078999996"
       height="1.158">
      <feGaussianBlur
         inkscape:collect="always"
         stdDeviation="2.2571432"
         id="feGaussianBlur5333-6" />
    </filter>
    <linearGradient
       inkscape:collect="always"
       xlink:href="#linearGradient5365-6"
       id="linearGradient5371-3"
       x1="0"
       y1="983.79077"
       x2="44.285717"
       y2="1052.3622"
       gradientUnits="userSpaceOnUse" />
    <linearGradient
       inkscape:collect="always"
       id="linearGradient5365-6">
      <stop
         style="stop-color:#aaeeff;stop-opacity:1;"
         offset="0"
         id="stop5367-3" />
      <stop
         style="stop-color:#aaeeff;stop-opacity:0;"
         offset="1"
         id="stop5369-3" />
    </linearGradient>
    <linearGradient
       y2="1052.3622"
       x2="44.285717"
       y1="983.79077"
       x1="0"
       gradientUnits="userSpaceOnUse"
       id="linearGradient5400"
       xlink:href="#linearGradient5365-6"
       inkscape:collect="always" />
    <inkscape:perspective
       id="perspective5386-5"
       inkscape:persp3d-origin="0.5 : 0.33333333 : 1"
       inkscape:vp_z="1 : 0.5 : 1"
       inkscape:vp_y="0 : 1000 : 0"
       inkscape:vp_x="0 : 0.5 : 1"
       sodipodi:type="inkscape:persp3d" />
    <filter
       color-interpolation-filters="sRGB"
       inkscape:collect="always"
       id="filter5331-4"
       x="-0.12232259"
       width="1.2446452"
       y="-0.078999996"
       height="1.158">
      <feGaussianBlur
         inkscape:collect="always"
         stdDeviation="2.2571432"
         id="feGaussianBlur5333-3" />
    </filter>
    <linearGradient
       inkscape:collect="always"
       xlink:href="#linearGradient5365-5"
       id="linearGradient5371-34"
       x1="0"
       y1="983.79077"
       x2="44.285717"
       y2="1052.3622"
       gradientUnits="userSpaceOnUse" />
    <linearGradient
       inkscape:collect="always"
       id="linearGradient5365-5">
      <stop
         style="stop-color:#aaeeff;stop-opacity:1;"
         offset="0"
         id="stop5367-6" />
      <stop
         style="stop-color:#aaeeff;stop-opacity:0;"
         offset="1"
         id="stop5369-5" />
    </linearGradient>
    <linearGradient
       y2="1052.3622"
       x2="44.285717"
       y1="983.79077"
       x1="0"
       gradientUnits="userSpaceOnUse"
       id="linearGradient5400-4"
       xlink:href="#linearGradient5365-5"
       inkscape:collect="always" />
    <linearGradient
       inkscape:collect="always"
       xlink:href="#linearGradient5365"
       id="linearGradient5460"
       gradientUnits="userSpaceOnUse"
       x1="0"
       y1="983.79077"
       x2="44.285717"
       y2="1052.3622" />
    <inkscape:perspective
       id="perspective5478"
       inkscape:persp3d-origin="0.5 : 0.33333333 : 1"
       inkscape:vp_z="1 : 0.5 : 1"
       inkscape:vp_y="0 : 1000 : 0"
       inkscape:vp_x="0 : 0.5 : 1"
       sodipodi:type="inkscape:persp3d" />
    <linearGradient
       inkscape:collect="always"
       xlink:href="#linearGradient5365"
       id="linearGradient2900"
       gradientUnits="userSpaceOnUse"
       x1="0"
       y1="983.79077"
       x2="44.285717"
       y2="1052.3622"
       gradientTransform="translate(37.142857,-330)" />
    <linearGradient
       inkscape:collect="always"
       xlink:href="#linearGradient5365-5"
       id="linearGradient2908"
       gradientUnits="userSpaceOnUse"
       x1="0"
       y1="983.79077"
       x2="44.285717"
       y2="1052.3622"
       gradientTransform="translate(77.142857,-230.00003)" />
    <linearGradient
       inkscape:collect="always"
       xlink:href="#linearGradient5365-6"
       id="linearGradient2913"
       gradientUnits="userSpaceOnUse"
       x1="0"
       y1="983.79077"
       x2="44.285717"
       y2="1052.3622"
       gradientTransform="translate(6.628656,-220.135)" />
    <linearGradient
       inkscape:collect="always"
       xlink:href="#linearGradient5365-6"
       id="linearGradient3714"
       gradientUnits="userSpaceOnUse"
       gradientTransform="translate(6.628656,-220.135)"
       x1="0"
       y1="983.79077"
       x2="44.285717"
       y2="1052.3622" />
    <linearGradient
       inkscape:collect="always"
       xlink:href="#linearGradient5365-6"
       id="linearGradient3717"
       gradientUnits="userSpaceOnUse"
       gradientTransform="translate(6.628656,-220.135)"
       x1="0"
       y1="983.79077"
       x2="44.285717"
       y2="1052.3622" />
    <linearGradient
       inkscape:collect="always"
       xlink:href="#linearGradient5365-6"
       id="linearGradient3732"
       gradientUnits="userSpaceOnUse"
       gradientTransform="translate(44.485798,-212.27786)"
       x1="0"
       y1="983.79077"
       x2="44.285717"
       y2="1052.3622" />
    <linearGradient
       inkscape:collect="always"
       xlink:href="#linearGradient5365"
       id="linearGradient3736"
       gradientUnits="userSpaceOnUse"
       gradientTransform="translate(57.857142,-242.85714)"
       x1="0"
       y1="983.79077"
       x2="44.285717"
       y2="1052.3622" />
    <inkscape:perspective
       id="perspective3746"
       inkscape:persp3d-origin="0.5 : 0.33333333 : 1"
       inkscape:vp_z="1 : 0.5 : 1"
       inkscape:vp_y="0 : 1000 : 0"
       inkscape:vp_x="0 : 0.5 : 1"
       sodipodi:type="inkscape:persp3d" />
    <filter
       inkscape:collect="always"
       style="color-interpolation-filters:sRGB"
       id="filter1003"
       x="-0.013983221"
       width="1.0279664"
       y="-0.084609137"
       height="1.1692183">
      <feGaussianBlur
         inkscape:collect="always"
         stdDeviation="0.54257813"
         id="feGaussianBlur1005" />
    </filter>
    <filter
       inkscape:collect="always"
       style="color-interpolation-filters:sRGB"
       id="filter1021"
       x="-0.015189698"
       width="1.0303794"
       y="-0.057145342"
       height="1.1142907">
      <feGaussianBlur
         inkscape:collect="always"
         stdDeviation="0.67385742"
         id="feGaussianBlur1023" />
    </filter>
  </defs>
  <sodipodi:namedview
     id="base"
     pagecolor="#ffffff"
     bordercolor="#666666"
     borderopacity="1.0"
     inkscape:pageopacity="0.0"
     inkscape:pageshadow="2"
     inkscape:zoom="2.8284271"
     inkscape:cx="51.828899"
     inkscape:cy="21.88748"
     inkscape:document-units="px"
     inkscape:current-layer="text1009"
     showgrid="false"
     showguides="true"
     inkscape:guide-bbox="true"
     inkscape:window-width="1920"
     inkscape:window-height="1027"
     inkscape:window-x="0"
     inkscape:window-y="25"
     inkscape:window-maximized="1"
     inkscape:document-rotation="0">
    <inkscape:grid
       type="xygrid"
       id="grid3813"
       empspacing="5"
       visible="true"
       enabled="true"
       snapvisiblegridlinesonly="true" />
  </sodipodi:namedview>
  <metadata
     id="metadata7">
    <rdf:RDF>
      <cc:Work
         rdf:about="">
        <dc:format>image/svg+xml</dc:format>
        <dc:type
           rdf:resource="http://purl.org/dc/dcmitype/StillImage" />
        <dc:title />
      </cc:Work>
    </rdf:RDF>
  </metadata>
  <g
     inkscape:groupmode="layer"
     id="layer2"
     inkscape:label="shadows"
     style="display:inline"
     transform="translate(-39.068654,-735.50146)">
    <rect
       style="display:inline;fill:#00ccff;fill-opacity:1;fill-rule:evenodd;stroke:none;filter:url(#filter5331-4)"
       id="rect5289-5-1"
       width="44.285717"
       height="68.571442"
       x="77.14286"
       y="753.79077" />
    <rect
       style="display:inline;fill:#00ccff;fill-opacity:1;fill-rule:evenodd;stroke:none;filter:url(#filter5331)"
       id="rect5289-5"
       width="44.285717"
       height="68.571442"
       x="57.85714"
       y="740.93365" />
    <rect
       style="display:inline;fill:#00ccff;fill-opacity:1;fill-rule:evenodd;stroke:none;filter:url(#filter5331-3)"
       id="rect5289-5-2"
       width="44.285717"
       height="68.571442"
       x="44.485798"
       y="771.51288" />
    <g
       style="font-style:normal;font-variant:normal;font-weight:normal;font-stretch:normal;line-height:0%;font-family:'Droid Sans';-inkscape-font-specification:'Droid Sans';display:inline;fill:#999999;fill-opacity:1;stroke:none;filter:url(#filter1003)"
       id="text891"
       aria-label="markdown">
      <path
         inkscape:connector-curvature="0"
         id="path918"
         style="font-size:20px;line-height:1.25;fill:#999999"
         d="m 139.64481,790.61829 v -6.9043 q 0,-1.26953 -0.48828,-1.9043 -0.48828,-0.63476 -1.51367,-0.63476 -0.71289,0 -1.21094,0.23437 -0.49804,0.22461 -0.82031,0.67383 -0.3125,0.43945 -0.45898,1.10352 -0.14649,0.65429 -0.14649,1.51367 v 5.91797 h -1.78711 v -6.9043 q 0,-1.26953 -0.48828,-1.9043 -0.47851,-0.63476 -1.50391,-0.63476 -0.75195,0 -1.25976,0.2539 -0.50781,0.25391 -0.82031,0.75196 -0.30274,0.49804 -0.43946,1.2207 -0.12695,0.72266 -0.12695,1.66016 v 5.55664 h -1.77734 v -10.72266 h 1.44531 l 0.25391,1.44531 h 0.0976 q 0.23438,-0.41992 0.55664,-0.72265 0.32227,-0.3125 0.70313,-0.51758 0.39062,-0.20508 0.82031,-0.30274 0.43945,-0.0976 0.88867,-0.0976 1.17188,0 1.94336,0.42968 0.78125,0.42969 1.15234,1.34766 h 0.0781 q 0.25391,-0.45898 0.60547,-0.79101 0.36133,-0.33204 0.78125,-0.54688 0.42969,-0.22461 0.89844,-0.33203 0.46875,-0.10742 0.95703,-0.10742 1.70898,0 2.56836,0.9375 0.86914,0.92773 0.86914,2.97851 v 7.00196 z" />
      <path
         inkscape:connector-curvature="0"
         id="path920"
         style="font-size:20px;line-height:1.25;fill:#999999"
         d="m 150.76786,790.61829 -0.36133,-1.48438 h -0.0781 q -0.32227,0.43945 -0.64453,0.76172 -0.32227,0.3125 -0.70313,0.51758 -0.38086,0.20508 -0.84961,0.30273 -0.46875,0.0977 -1.08398,0.0977 -0.67383,0 -1.24024,-0.19531 -0.5664,-0.18555 -0.98633,-0.57618 -0.41015,-0.40039 -0.64453,-0.99609 -0.23437,-0.60547 -0.23437,-1.42578 0,-1.60156 1.12305,-2.46094 1.13281,-0.85937 3.4375,-0.9375 l 1.79687,-0.0684 v -0.67383 q 0,-0.65429 -0.14648,-1.09375 -0.13672,-0.43945 -0.41016,-0.70312 -0.26367,-0.27344 -0.66406,-0.39063 -0.39063,-0.11718 -0.89844,-0.11718 -0.81055,0 -1.51367,0.23437 -0.69336,0.23438 -1.33789,0.56641 l -0.625,-1.33789 q 0.72265,-0.39063 1.61133,-0.66407 0.88867,-0.27343 1.86523,-0.27343 0.99609,0 1.71875,0.20508 0.73242,0.19531 1.20117,0.63476 0.47852,0.42969 0.71289,1.10352 0.23438,0.67382 0.23438,1.63086 v 7.34375 z m -3.26172,-1.24024 q 0.5957,0 1.10352,-0.18555 0.50781,-0.18554 0.8789,-0.55664 0.3711,-0.38086 0.57618,-0.94726 0.21484,-0.57617 0.21484,-1.34766 v -0.96679 l -1.39649,0.0684 q -0.8789,0.0391 -1.4746,0.19532 -0.59571,0.15625 -0.95704,0.43945 -0.35156,0.27344 -0.50781,0.67383 -0.15625,0.39062 -0.15625,0.88867 0,0.89844 0.46875,1.31836 0.47852,0.41992 1.25,0.41992 z" />
      <path
         inkscape:connector-curvature="0"
         id="path922"
         style="font-size:20px;line-height:1.25;fill:#999999"
         d="m 159.97684,779.70032 q 0.28321,0 0.63477,0.0293 0.35156,0.0195 0.60547,0.0684 l -0.23438,1.64063 q -0.27343,-0.0488 -0.5664,-0.0781 -0.28321,-0.0391 -0.53711,-0.0391 -0.61524,0 -1.12305,0.25391 -0.50781,0.24414 -0.8789,0.71289 -0.36133,0.45898 -0.56641,1.11328 -0.19531,0.64453 -0.19531,1.43555 v 5.78125 h -1.77735 v -10.72266 h 1.44532 l 0.21484,1.96289 h 0.0781 q 0.24414,-0.41992 0.51758,-0.81055 0.28321,-0.39062 0.625,-0.68359 0.35156,-0.30273 0.78125,-0.47852 0.42969,-0.18554 0.97656,-0.18554 z" />
      <path
         inkscape:connector-curvature="0"
         id="path924"
         style="font-size:20px;line-height:1.25;fill:#999999"
         d="m 164.95731,785.08118 1.31836,-1.66016 2.86133,-3.52539 h 2.06055 l -3.91602,4.63867 4.17969,6.08399 h -2.04102 l -3.28125,-4.92188 -1.06445,0.80078 v 4.1211 h -1.75781 v -15.19532 h 1.75781 v 6.97266 l -0.15625,2.68555 z" />
      <path
         inkscape:connector-curvature="0"
         id="path926"
         style="font-size:20px;line-height:1.25;fill:#999999"
         d="m 179.85966,789.18274 h -0.0781 q -0.21484,0.33203 -0.50781,0.63476 -0.2832,0.29297 -0.66406,0.51758 -0.3711,0.22461 -0.83985,0.35157 -0.46875,0.12695 -1.05468,0.12695 -0.90821,0 -1.66016,-0.35156 -0.75195,-0.35157 -1.28906,-1.04493 -0.53711,-0.70312 -0.83008,-1.73828 -0.29297,-1.03515 -0.29297,-2.40234 0,-1.37695 0.29297,-2.41211 0.29297,-1.04492 0.83008,-1.74805 0.53711,-0.70312 1.28906,-1.05468 0.75195,-0.36133 1.66016,-0.36133 0.57617,0 1.04492,0.12695 0.46875,0.12695 0.83984,0.3418 0.38086,0.21484 0.67383,0.49804 0.29297,0.28321 0.50781,0.59571 h 0.11719 q -0.0293,-0.33203 -0.0586,-0.63477 -0.0195,-0.2539 -0.0391,-0.51758 -0.0195,-0.27343 -0.0195,-0.42968 v -4.25782 h 1.77735 v 15.19532 h -1.43555 z m -2.80274,0.15625 q 0.74219,0 1.25,-0.22461 0.51758,-0.22461 0.83008,-0.68359 0.32227,-0.45899 0.46875,-1.14258 0.15625,-0.69336 0.17578,-1.61133 v -0.40039 q 0,-0.98633 -0.13672,-1.74805 -0.12695,-0.77148 -0.44922,-1.28906 -0.3125,-0.52734 -0.83984,-0.79102 -0.52734,-0.27343 -1.31836,-0.27343 -1.31836,0 -1.94336,1.06445 -0.61523,1.06445 -0.61523,3.05664 0,2.04102 0.61523,3.04688 0.625,0.99609 1.96289,0.99609 z" />
      <path
         inkscape:connector-curvature="0"
         id="path928"
         style="font-size:20px;line-height:1.25;fill:#999999"
         d="m 193.69755,785.23743 q 0,1.33789 -0.33203,2.38281 -0.32227,1.03516 -0.9375,1.74805 -0.60547,0.70312 -1.47461,1.07421 -0.86914,0.3711 -1.95313,0.3711 -1.00586,0 -1.85547,-0.3711 -0.84961,-0.37109 -1.47461,-1.07421 -0.61523,-0.71289 -0.96679,-1.74805 -0.3418,-1.04492 -0.3418,-2.38281 0,-1.32813 0.32227,-2.35352 0.33203,-1.03516 0.9375,-1.73828 0.60546,-0.71289 1.47461,-1.07422 0.8789,-0.37109 1.96289,-0.37109 1.00586,0 1.85546,0.37109 0.84961,0.36133 1.46485,1.07422 0.625,0.70312 0.9668,1.73828 0.35156,1.02539 0.35156,2.35352 z m -7.5,0 q 0,2.04101 0.66406,3.07617 0.67383,1.02539 2.17773,1.02539 1.50391,0 2.15821,-1.02539 0.66406,-1.03516 0.66406,-3.07617 0,-2.04102 -0.67383,-3.04688 -0.66406,-1.01562 -2.16797,-1.01562 -1.5039,0 -2.16797,1.01562 -0.65429,1.00586 -0.65429,3.04688 z" />
      <path
         inkscape:connector-curvature="0"
         id="path930"
         style="font-size:20px;line-height:1.25;fill:#999999"
         d="m 204.64481,790.61829 -1.64062,-6.01563 q -0.0391,-0.17578 -0.0977,-0.39062 -0.0586,-0.22461 -0.11719,-0.46875 -0.0586,-0.24414 -0.12695,-0.49805 -0.0586,-0.25391 -0.11719,-0.49805 -0.13671,-0.5664 -0.2832,-1.17187 h -0.0586 q -0.13672,0.61523 -0.26367,1.18164 -0.10743,0.48828 -0.23438,1.00586 -0.11719,0.51758 -0.22461,0.8789 l -1.67969,5.97657 h -2.06054 l -2.74414,-10.72266 h 1.86523 l 1.2793,5.70312 q 0.0977,0.43946 0.19531,0.95704 0.0977,0.50781 0.18555,1.01562 0.0879,0.49805 0.15625,0.94727 0.0684,0.43945 0.10742,0.72265 h 0.0586 q 0.0488,-0.2539 0.12696,-0.67383 0.0879,-0.42968 0.18554,-0.89843 0.10742,-0.47852 0.21485,-0.9375 0.10742,-0.46875 0.20507,-0.79102 l 1.74805,-6.04492 h 1.91406 l 1.67969,6.04492 q 0.0879,0.33203 0.19531,0.78125 0.11719,0.44922 0.22461,0.91797 0.10742,0.45898 0.19532,0.88867 0.0879,0.42969 0.12695,0.71289 h 0.0586 q 0.0293,-0.2539 0.0879,-0.67383 0.0684,-0.42968 0.15625,-0.9375 0.0879,-0.50781 0.18555,-1.03515 0.10742,-0.53711 0.21484,-0.9961 l 1.33789,-5.70312 h 1.81641 l -2.77344,10.72266 z" />
      <path
         inkscape:connector-curvature="0"
         id="path932"
         style="font-size:20px;line-height:1.25;fill:#999999"
         d="m 218.12138,790.61829 v -6.9043 q 0,-1.26953 -0.51758,-1.9043 -0.50781,-0.63476 -1.60156,-0.63476 -0.79102,0 -1.32813,0.2539 -0.53711,0.25391 -0.86914,0.75196 -0.32227,0.49804 -0.46875,1.2207 -0.13672,0.72266 -0.13672,1.66016 v 5.55664 h -1.77734 v -10.72266 h 1.44531 l 0.25391,1.44531 h 0.0977 q 0.24414,-0.41992 0.57617,-0.72265 0.3418,-0.3125 0.74219,-0.51758 0.40039,-0.20508 0.84961,-0.30274 0.44922,-0.0976 0.91797,-0.0976 1.78711,0 2.68555,0.9375 0.9082,0.92773 0.9082,2.97851 v 7.00196 z" />
    </g>
    <g
       style="font-style:normal;font-variant:normal;font-weight:normal;font-stretch:normal;line-height:0%;font-family:'Droid Sans';-inkscape-font-specification:'Droid Sans';display:inline;fill:#808080;fill-opacity:1;stroke:none;filter:url(#filter1021)"
       id="text1009"
       aria-label="papers">
      <path
         inkscape:connector-curvature="0"
         id="path935"
         style="font-size:36px;line-height:1.25"
         d="m 135.52177,820.96149 q -1.03711,0 -1.88086,-0.22852 -0.84375,-0.22851 -1.5293,-0.59766 -0.66797,-0.38671 -1.19531,-0.89648 -0.50977,-0.50977 -0.91406,-1.07227 h -0.21094 q 0.0527,0.59766 0.10547,1.14258 0.0351,0.45703 0.0703,0.94922 0.0352,0.47461 0.0352,0.75586 v 8.24414 h -3.19922 v -27.94922 h 2.60156 l 0.45703,2.60157 h 0.14063 q 0.40429,-0.61524 0.91406,-1.14258 0.50976,-0.54492 1.17773,-0.93164 0.68555,-0.4043 1.5293,-0.63282 0.84375,-0.24609 1.89844,-0.24609 1.65234,0 3.00586,0.63281 1.35351,0.63282 2.30273,1.89844 0.9668,1.24805 1.49414,3.11133 0.52734,1.86328 0.52734,4.32422 0,2.47851 -0.52734,4.35937 -0.52734,1.86328 -1.49414,3.12891 -0.94922,1.26562 -2.30273,1.91601 -1.35352,0.63282 -3.00586,0.63282 z m -0.61524,-17.34961 q -1.33594,0 -2.26758,0.40429 -0.91406,0.4043 -1.49414,1.23047 -0.5625,0.82617 -0.84375,2.05664 -0.26367,1.23047 -0.29882,2.90039 v 0.72071 q 0,1.77539 0.22851,3.16406 0.24609,1.37109 0.80859,2.32031 0.58008,0.93164 1.5293,1.42383 0.94922,0.47461 2.37305,0.47461 2.37305,0 3.48047,-1.91602 1.125,-1.91601 1.125,-5.50195 0,-3.65625 -1.125,-5.4668 -1.10742,-1.81054 -3.51563,-1.81054 z" />
      <path
         inkscape:connector-curvature="0"
         id="path937"
         style="font-size:36px;line-height:1.25"
         d="m 158.77763,820.60992 -0.65039,-2.67187 h -0.14063 q -0.58008,0.79101 -1.16016,1.37109 -0.58007,0.5625 -1.26562,0.93164 -0.68555,0.36914 -1.5293,0.54493 -0.84375,0.17578 -1.95117,0.17578 -1.21289,0 -2.23242,-0.35157 -1.01953,-0.33398 -1.77539,-1.03711 -0.73828,-0.7207 -1.16016,-1.79296 -0.42187,-1.08985 -0.42187,-2.56641 0,-2.88281 2.02148,-4.42969 2.03906,-1.54687 6.1875,-1.6875 l 3.23438,-0.12304 v -1.2129 q 0,-1.17773 -0.26368,-1.96875 -0.24609,-0.79101 -0.73828,-1.26562 -0.47461,-0.49219 -1.19531,-0.70313 -0.70312,-0.21093 -1.61719,-0.21093 -1.45898,0 -2.72461,0.42187 -1.24804,0.42188 -2.4082,1.01953 l -1.125,-2.4082 q 1.30078,-0.70312 2.90039,-1.19531 1.59961,-0.49219 3.35742,-0.49219 1.79297,0 3.09375,0.36914 1.31836,0.35156 2.16211,1.14258 0.86133,0.77344 1.28321,1.98633 0.42187,1.21289 0.42187,2.93554 v 13.21875 z m -5.8711,-2.23242 q 1.07227,0 1.98633,-0.33398 0.91406,-0.33399 1.58203,-1.00196 0.66797,-0.68554 1.03711,-1.70507 0.38672,-1.03711 0.38672,-2.42578 v -1.74024 l -2.51367,0.12305 q -1.58203,0.0703 -2.6543,0.35156 -1.07226,0.28125 -1.72266,0.79102 -0.63281,0.49218 -0.91406,1.21289 -0.28125,0.70312 -0.28125,1.59961 0,1.61718 0.84375,2.37304 0.86133,0.75586 2.25,0.75586 z" />
      <path
         inkscape:connector-curvature="0"
         id="path939"
         style="font-size:36px;line-height:1.25"
         d="m 175.72294,820.96149 q -1.03711,0 -1.88086,-0.22852 -0.84375,-0.22851 -1.5293,-0.59766 -0.66797,-0.38671 -1.19531,-0.89648 -0.50977,-0.50977 -0.91406,-1.07227 h -0.21094 q 0.0527,0.59766 0.10547,1.14258 0.0352,0.45703 0.0703,0.94922 0.0352,0.47461 0.0352,0.75586 v 8.24414 h -3.19922 v -27.94922 h 2.60156 l 0.45703,2.60157 h 0.14063 q 0.40429,-0.61524 0.91406,-1.14258 0.50977,-0.54492 1.17773,-0.93164 0.68555,-0.4043 1.5293,-0.63282 0.84375,-0.24609 1.89844,-0.24609 1.65234,0 3.00586,0.63281 1.35351,0.63282 2.30273,1.89844 0.9668,1.24805 1.49414,3.11133 0.52735,1.86328 0.52735,4.32422 0,2.47851 -0.52735,4.35937 -0.52734,1.86328 -1.49414,3.12891 -0.94922,1.26562 -2.30273,1.91601 -1.35352,0.63282 -3.00586,0.63282 z m -0.61524,-17.34961 q -1.33593,0 -2.26757,0.40429 -0.91407,0.4043 -1.49414,1.23047 -0.5625,0.82617 -0.84375,2.05664 -0.26368,1.23047 -0.29883,2.90039 v 0.72071 q 0,1.77539 0.22851,3.16406 0.2461,1.37109 0.8086,2.32031 0.58007,0.93164 1.52929,1.42383 0.94922,0.47461 2.37305,0.47461 2.37305,0 3.48047,-1.91602 1.125,-1.91601 1.125,-5.50195 0,-3.65625 -1.125,-5.4668 -1.10742,-1.81054 -3.51563,-1.81054 z" />
      <path
         inkscape:connector-curvature="0"
         id="path941"
         style="font-size:36px;line-height:1.25"
         d="m 195.72684,820.96149 q -1.93359,0 -3.5332,-0.65039 -1.59961,-0.65039 -2.75976,-1.89844 -1.14258,-1.24805 -1.77539,-3.09375 -0.63282,-1.8457 -0.63282,-4.21875 0,-2.39063 0.58008,-4.27149 0.58008,-1.88086 1.63477,-3.18164 1.05468,-1.31836 2.51367,-2.0039 1.47656,-0.68555 3.25195,-0.68555 1.74024,0 3.12891,0.63281 1.38867,0.61524 2.35547,1.75782 0.96679,1.125 1.47656,2.7246 0.52734,1.58204 0.52734,3.51563 v 1.98633 h -12.16406 q 0.0879,3.39258 1.42383,4.99219 1.35351,1.5996 4.00781,1.5996 0.89649,0 1.65234,-0.0879 0.77344,-0.0879 1.47657,-0.24609 0.7207,-0.17578 1.38867,-0.42187 0.66797,-0.26368 1.35351,-0.58008 v 2.84765 q -0.70312,0.33399 -1.38867,0.58008 -0.66797,0.2461 -1.38867,0.4043 -0.70312,0.1582 -1.47656,0.22851 -0.75586,0.0703 -1.65235,0.0703 z m -0.79101,-17.34961 q -2.00391,0 -3.18164,1.37109 -1.16016,1.37109 -1.35352,3.99024 h 8.64844 q 0,-1.19532 -0.24609,-2.17969 -0.22852,-1.00196 -0.73828,-1.70508 -0.49219,-0.70313 -1.26563,-1.08984 -0.77344,-0.38672 -1.86328,-0.38672 z" />
      <path
         inkscape:connector-curvature="0"
         id="path943"
         style="font-size:36px;line-height:1.25"
         d="m 215.71317,800.95758 q 0.50977,0 1.14258,0.0527 0.63281,0.0352 1.08984,0.12305 l -0.42187,2.95313 q -0.49219,-0.0879 -1.01953,-0.14063 -0.50977,-0.0703 -0.9668,-0.0703 -1.10742,0 -2.02148,0.45703 -0.91407,0.43945 -1.58203,1.2832 -0.65039,0.82618 -1.01954,2.00391 -0.35156,1.16016 -0.35156,2.58398 v 10.40625 h -3.19922 v -19.30078 h 2.60157 l 0.38671,3.53321 h 0.14063 q 0.43945,-0.75586 0.93164,-1.45899 0.50977,-0.70312 1.125,-1.23047 0.63281,-0.54492 1.40625,-0.86133 0.77344,-0.33398 1.75781,-0.33398 z" />
      <path
         inkscape:connector-curvature="0"
         id="path945"
         style="font-size:36px;line-height:1.25"
         d="m 233.27372,815.31891 q 0,1.40625 -0.50977,2.46094 -0.50976,1.05468 -1.47656,1.77539 -0.94922,0.70312 -2.30273,1.05468 -1.35352,0.35157 -3.04102,0.35157 -1.91601,0 -3.28711,-0.31641 -1.37109,-0.29883 -2.4082,-0.89648 v -2.91797 q 0.54492,0.28125 1.21289,0.5625 0.66797,0.26367 1.40625,0.47461 0.73828,0.21093 1.51172,0.35156 0.79101,0.12305 1.56445,0.12305 1.14258,0 1.9336,-0.19336 0.80859,-0.19336 1.30078,-0.54493 0.50976,-0.36914 0.73828,-0.8789 0.22851,-0.52735 0.22851,-1.16016 0,-0.54492 -0.17578,-0.98437 -0.17578,-0.43946 -0.65039,-0.86133 -0.45703,-0.43945 -1.26562,-0.87891 -0.8086,-0.43945 -2.07422,-0.98437 -1.26563,-0.54492 -2.28516,-1.07227 -1.00195,-0.52734 -1.70508,-1.17773 -0.70312,-0.65039 -1.08984,-1.49414 -0.36914,-0.86133 -0.36914,-2.03907 0,-1.23046 0.47461,-2.17968 0.49219,-0.9668 1.37109,-1.61719 0.87891,-0.65039 2.10938,-0.98438 1.23047,-0.33398 2.74218,-0.33398 1.70508,0 3.11133,0.36914 1.42383,0.36914 2.68946,0.9668 l -1.10743,2.58398 q -1.14257,-0.50976 -2.35546,-0.8789 -1.19532,-0.38672 -2.44336,-0.38672 -1.79297,0 -2.6543,0.59765 -0.86133,0.58008 -0.86133,1.66993 0,0.61523 0.19336,1.07226 0.21094,0.45703 0.70313,0.86133 0.49218,0.4043 1.31835,0.82617 0.82618,0.4043 2.05665,0.91406 1.26562,0.52735 2.25,1.05469 1.00195,0.52734 1.70507,1.19531 0.70313,0.65039 1.07227,1.49414 0.36914,0.84375 0.36914,2.02149 z" />
    </g>
  </g>
  <g
     inkscape:groupmode="layer"
     id="layer3"
     inkscape:label="shapes"
     style="display:inline"
     transform="translate(-39.068654,-735.50146)">
    <rect
       style="display:inline;fill:#00ccff;fill-opacity:1;fill-rule:evenodd;stroke:none"
       id="rect5289-9"
       width="44.285717"
       height="68.571442"
       x="77.14286"
       y="753.79077" />
    <rect
       style="display:inline;fill:#00ccff;fill-opacity:1;fill-rule:evenodd;stroke:none"
       id="rect5289"
       width="44.285717"
       height="68.571442"
       x="57.85714"
       y="740.93365" />
    <rect
       style="display:inline;fill:#00ccff;fill-opacity:1;fill-rule:evenodd;stroke:none"
       id="rect5289-3"
       width="44.285717"
       height="68.571442"
       x="44.485798"
       y="771.51288" />
  </g>
  <g
     inkscape:label="text"
     inkscape:groupmode="layer"
     id="layer1"
     style="display:inline"
     transform="translate(-39.068654,-735.50146)">
    <g
       aria-label=".md"
       id="text5462"
       style="font-style:normal;font-variant:normal;font-weight:normal;font-stretch:normal;line-height:0%;font-family:'Droid Sans';-inkscape-font-specification:'Droid Sans';fill:#ffffff;fill-opacity:1;stroke:none">
      <path
         inkscape:connector-curvature="0"
         d="m 87.054133,815.63605 q 0,-0.34636 0.09115,-0.58334 0.09115,-0.24609 0.246094,-0.39193 0.154948,-0.15494 0.364584,-0.21875 0.209636,-0.0729 0.45573,-0.0729 0.23698,0 0.446616,0.0729 0.21875,0.0638 0.373698,0.21875 0.154948,0.14584 0.246094,0.39193 0.09115,0.23698 0.09115,0.58334 0,0.33724 -0.09115,0.58333 -0.09115,0.23698 -0.246094,0.39193 -0.154948,0.15495 -0.373698,0.22786 -0.209636,0.0729 -0.446616,0.0729 -0.246094,0 -0.45573,-0.0729 -0.209636,-0.0729 -0.364584,-0.22786 -0.154948,-0.15495 -0.246094,-0.39193 -0.09115,-0.24609 -0.09115,-0.58333 z"
         style="font-size:18.6667px;line-height:1.25"
         id="path934" />
      <path
         inkscape:connector-curvature="0"
         d="m 104.28984,816.64777 v -6.44403 q 0,-1.18489 -0.45573,-1.77734 -0.45573,-0.59245 -1.41276,-0.59245 -0.66537,0 -1.13021,0.21875 -0.46485,0.20963 -0.76563,0.62891 -0.29167,0.41015 -0.42838,1.02995 -0.136724,0.61067 -0.136724,1.41276 v 5.52345 h -1.667971 v -6.44403 q 0,-1.18489 -0.45573,-1.77734 -0.446616,-0.59245 -1.403649,-0.59245 -0.701824,0 -1.175783,0.23698 -0.473959,0.23698 -0.765627,0.70182 -0.282552,0.46485 -0.410157,1.13933 -0.118489,0.67448 -0.118489,1.54948 v 5.18621 h -1.658858 v -10.00783 h 1.348961 l 0.23698,1.34896 h 0.09115 q 0.21875,-0.39193 0.519532,-0.67448 0.300782,-0.29167 0.656251,-0.48308 0.364584,-0.1914 0.765627,-0.28255 0.410157,-0.0912 0.829428,-0.0912 1.093752,0 1.813806,0.40105 0.729168,0.40104 1.075522,1.25781 h 0.07292 q 0.23698,-0.42839 0.565111,-0.73828 0.33724,-0.3099 0.72917,-0.51042 0.40104,-0.20964 0.83854,-0.3099 0.4375,-0.10026 0.89323,-0.10026 1.59505,0 2.39714,0.87501 0.8112,0.86588 0.8112,2.77995 v 6.53517 z"
         style="font-size:18.6667px;line-height:1.25"
         id="path936" />
      <path
         inkscape:connector-curvature="0"
         d="m 115.20913,815.30792 h -0.0729 q -0.20053,0.3099 -0.47396,0.59245 -0.26433,0.27344 -0.6198,0.48307 -0.34635,0.20964 -0.78385,0.32813 -0.4375,0.11849 -0.98438,0.11849 -0.84766,0 -1.54948,-0.32813 -0.70183,-0.32812 -1.20313,-0.97526 -0.5013,-0.65625 -0.77474,-1.6224 -0.27344,-0.96615 -0.27344,-2.24219 0,-1.28516 0.27344,-2.25131 0.27344,-0.97526 0.77474,-1.63151 0.5013,-0.65625 1.20313,-0.98438 0.70182,-0.33724 1.54948,-0.33724 0.53776,0 0.97526,0.11849 0.4375,0.11849 0.78386,0.31901 0.35547,0.20053 0.62891,0.46485 0.27343,0.26432 0.47396,0.55599 h 0.10937 q -0.0273,-0.3099 -0.0547,-0.59245 -0.0182,-0.23698 -0.0365,-0.48307 -0.0182,-0.25521 -0.0182,-0.40105 v -3.97396 h 1.65885 v 14.18232 h -1.33984 z m -2.61589,0.14583 q 0.69271,0 1.16667,-0.20963 0.48307,-0.20964 0.77474,-0.63802 0.30078,-0.42839 0.4375,-1.06641 0.14584,-0.64714 0.16407,-1.50391 v -0.3737 q 0,-0.92057 -0.12761,-1.63151 -0.11849,-0.72006 -0.41927,-1.20313 -0.29167,-0.49219 -0.78386,-0.73828 -0.49218,-0.25521 -1.23047,-0.25521 -1.23047,0 -1.8138,0.99349 -0.57422,0.99349 -0.57422,2.85287 0,1.90495 0.57422,2.84375 0.58333,0.92969 1.83203,0.92969 z"
         style="font-size:18.6667px;line-height:1.25"
         id="path938" />
    </g>
    <g
       aria-label="markdown"
       id="text5466-1"
       style="font-style:normal;font-variant:normal;font-weight:normal;font-stretch:normal;line-height:0%;font-family:'Droid Sans';-inkscape-font-specification:'Droid Sans';display:inline;fill:#999999;fill-opacity:1;stroke:none">
      <path
         inkscape:connector-curvature="0"
         d="m 139.64481,790.61829 v -6.9043 q 0,-1.26953 -0.48828,-1.9043 -0.48828,-0.63476 -1.51367,-0.63476 -0.71289,0 -1.21094,0.23437 -0.49804,0.22461 -0.82031,0.67383 -0.3125,0.43945 -0.45898,1.10352 -0.14649,0.65429 -0.14649,1.51367 v 5.91797 h -1.78711 v -6.9043 q 0,-1.26953 -0.48828,-1.9043 -0.47851,-0.63476 -1.50391,-0.63476 -0.75195,0 -1.25976,0.2539 -0.50781,0.25391 -0.82031,0.75196 -0.30274,0.49804 -0.43946,1.2207 -0.12695,0.72266 -0.12695,1.66016 v 5.55664 h -1.77734 v -10.72266 h 1.44531 l 0.25391,1.44531 h 0.0976 q 0.23438,-0.41992 0.55664,-0.72265 0.32227,-0.3125 0.70313,-0.51758 0.39062,-0.20508 0.82031,-0.30274 0.43945,-0.0976 0.88867,-0.0976 1.17188,0 1.94336,0.42968 0.78125,0.42969 1.15234,1.34766 h 0.0781 q 0.25391,-0.45898 0.60547,-0.79101 0.36133,-0.33204 0.78125,-0.54688 0.42969,-0.22461 0.89844,-0.33203 0.46875,-0.10742 0.95703,-0.10742 1.70898,0 2.56836,0.9375 0.86914,0.92773 0.86914,2.97851 v 7.00196 z"
         style="font-size:20px;line-height:1.25;fill:#999999"
         id="path917" />
      <path
         inkscape:connector-curvature="0"
         d="m 150.76786,790.61829 -0.36133,-1.48438 h -0.0781 q -0.32227,0.43945 -0.64453,0.76172 -0.32227,0.3125 -0.70313,0.51758 -0.38086,0.20508 -0.84961,0.30273 -0.46875,0.0977 -1.08398,0.0977 -0.67383,0 -1.24024,-0.19531 -0.5664,-0.18555 -0.98633,-0.57618 -0.41015,-0.40039 -0.64453,-0.99609 -0.23437,-0.60547 -0.23437,-1.42578 0,-1.60156 1.12305,-2.46094 1.13281,-0.85937 3.4375,-0.9375 l 1.79687,-0.0684 v -0.67383 q 0,-0.65429 -0.14648,-1.09375 -0.13672,-0.43945 -0.41016,-0.70312 -0.26367,-0.27344 -0.66406,-0.39063 -0.39063,-0.11718 -0.89844,-0.11718 -0.81055,0 -1.51367,0.23437 -0.69336,0.23438 -1.33789,0.56641 l -0.625,-1.33789 q 0.72265,-0.39063 1.61133,-0.66407 0.88867,-0.27343 1.86523,-0.27343 0.99609,0 1.71875,0.20508 0.73242,0.19531 1.20117,0.63476 0.47852,0.42969 0.71289,1.10352 0.23438,0.67382 0.23438,1.63086 v 7.34375 z m -3.26172,-1.24024 q 0.5957,0 1.10352,-0.18555 0.50781,-0.18554 0.8789,-0.55664 0.3711,-0.38086 0.57618,-0.94726 0.21484,-0.57617 0.21484,-1.34766 v -0.96679 l -1.39649,0.0684 q -0.8789,0.0391 -1.4746,0.19532 -0.59571,0.15625 -0.95704,0.43945 -0.35156,0.27344 -0.50781,0.67383 -0.15625,0.39062 -0.15625,0.88867 0,0.89844 0.46875,1.31836 0.47852,0.41992 1.25,0.41992 z"
         style="font-size:20px;line-height:1.25;fill:#999999"
         id="path919" />
      <path
         inkscape:connector-curvature="0"
         d="m 159.97684,779.70032 q 0.28321,0 0.63477,0.0293 0.35156,0.0195 0.60547,0.0684 l -0.23438,1.64063 q -0.27343,-0.0488 -0.5664,-0.0781 -0.28321,-0.0391 -0.53711,-0.0391 -0.61524,0 -1.12305,0.25391 -0.50781,0.24414 -0.8789,0.71289 -0.36133,0.45898 -0.56641,1.11328 -0.19531,0.64453 -0.19531,1.43555 v 5.78125 h -1.77735 v -10.72266 h 1.44532 l 0.21484,1.96289 h 0.0781 q 0.24414,-0.41992 0.51758,-0.81055 0.28321,-0.39062 0.625,-0.68359 0.35156,-0.30273 0.78125,-0.47852 0.42969,-0.18554 0.97656,-0.18554 z"
         style="font-size:20px;line-height:1.25;fill:#999999"
         id="path921" />
      <path
         inkscape:connector-curvature="0"
         d="m 164.95731,785.08118 1.31836,-1.66016 2.86133,-3.52539 h 2.06055 l -3.91602,4.63867 4.17969,6.08399 h -2.04102 l -3.28125,-4.92188 -1.06445,0.80078 v 4.1211 h -1.75781 v -15.19532 h 1.75781 v 6.97266 l -0.15625,2.68555 z"
         style="font-size:20px;line-height:1.25;fill:#999999"
         id="path923" />
      <path
         inkscape:connector-curvature="0"
         d="m 179.85966,789.18274 h -0.0781 q -0.21484,0.33203 -0.50781,0.63476 -0.2832,0.29297 -0.66406,0.51758 -0.3711,0.22461 -0.83985,0.35157 -0.46875,0.12695 -1.05468,0.12695 -0.90821,0 -1.66016,-0.35156 -0.75195,-0.35157 -1.28906,-1.04493 -0.53711,-0.70312 -0.83008,-1.73828 -0.29297,-1.03515 -0.29297,-2.40234 0,-1.37695 0.29297,-2.41211 0.29297,-1.04492 0.83008,-1.74805 0.53711,-0.70312 1.28906,-1.05468 0.75195,-0.36133 1.66016,-0.36133 0.57617,0 1.04492,0.12695 0.46875,0.12695 0.83984,0.3418 0.38086,0.21484 0.67383,0.49804 0.29297,0.28321 0.50781,0.59571 h 0.11719 q -0.0293,-0.33203 -0.0586,-0.63477 -0.0195,-0.2539 -0.0391,-0.51758 -0.0195,-0.27343 -0.0195,-0.42968 v -4.25782 h 1.77735 v 15.19532 h -1.43555 z m -2.80274,0.15625 q 0.74219,0 1.25,-0.22461 0.51758,-0.22461 0.83008,-0.68359 0.32227,-0.45899 0.46875,-1.14258 0.15625,-0.69336 0.17578,-1.61133 v -0.40039 q 0,-0.98633 -0.13672,-1.74805 -0.12695,-0.77148 -0.44922,-1.28906 -0.3125,-0.52734 -0.83984,-0.79102 -0.52734,-0.27343 -1.31836,-0.27343 -1.31836,0 -1.94336,1.06445 -0.61523,1.06445 -0.61523,3.05664 0,2.04102 0.61523,3.04688 0.625,0.99609 1.96289,0.99609 z"
         style="font-size:20px;line-height:1.25;fill:#999999"
         id="path925" />
      <path
         inkscape:connector-curvature="0"
         d="m 193.69755,785.23743 q 0,1.33789 -0.33203,2.38281 -0.32227,1.03516 -0.9375,1.74805 -0.60547,0.70312 -1.47461,1.07421 -0.86914,0.3711 -1.95313,0.3711 -1.00586,0 -1.85547,-0.3711 -0.84961,-0.37109 -1.47461,-1.07421 -0.61523,-0.71289 -0.96679,-1.74805 -0.3418,-1.04492 -0.3418,-2.38281 0,-1.32813 0.32227,-2.35352 0.33203,-1.03516 0.9375,-1.73828 0.60546,-0.71289 1.47461,-1.07422 0.8789,-0.37109 1.96289,-0.37109 1.00586,0 1.85546,0.37109 0.84961,0.36133 1.46485,1.07422 0.625,0.70312 0.9668,1.73828 0.35156,1.02539 0.35156,2.35352 z m -7.5,0 q 0,2.04101 0.66406,3.07617 0.67383,1.02539 2.17773,1.02539 1.50391,0 2.15821,-1.02539 0.66406,-1.03516 0.66406,-3.07617 0,-2.04102 -0.67383,-3.04688 -0.66406,-1.01562 -2.16797,-1.01562 -1.5039,0 -2.16797,1.01562 -0.65429,1.00586 -0.65429,3.04688 z"
         style="font-size:20px;line-height:1.25;fill:#999999"
         id="path927" />
      <path
         inkscape:connector-curvature="0"
         d="m 204.64481,790.61829 -1.64062,-6.01563 q -0.0391,-0.17578 -0.0977,-0.39062 -0.0586,-0.22461 -0.11719,-0.46875 -0.0586,-0.24414 -0.12695,-0.49805 -0.0586,-0.25391 -0.11719,-0.49805 -0.13671,-0.5664 -0.2832,-1.17187 h -0.0586 q -0.13672,0.61523 -0.26367,1.18164 -0.10743,0.48828 -0.23438,1.00586 -0.11719,0.51758 -0.22461,0.8789 l -1.67969,5.97657 h -2.06054 l -2.74414,-10.72266 h 1.86523 l 1.2793,5.70312 q 0.0977,0.43946 0.19531,0.95704 0.0977,0.50781 0.18555,1.01562 0.0879,0.49805 0.15625,0.94727 0.0684,0.43945 0.10742,0.72265 h 0.0586 q 0.0488,-0.2539 0.12696,-0.67383 0.0879,-0.42968 0.18554,-0.89843 0.10742,-0.47852 0.21485,-0.9375 0.10742,-0.46875 0.20507,-0.79102 l 1.74805,-6.04492 h 1.91406 l 1.67969,6.04492 q 0.0879,0.33203 0.19531,0.78125 0.11719,0.44922 0.22461,0.91797 0.10742,0.45898 0.19532,0.88867 0.0879,0.42969 0.12695,0.71289 h 0.0586 q 0.0293,-0.2539 0.0879,-0.67383 0.0684,-0.42968 0.15625,-0.9375 0.0879,-0.50781 0.18555,-1.03515 0.10742,-0.53711 0.21484,-0.9961 l 1.33789,-5.70312 h 1.81641 l -2.77344,10.72266 z"
         style="font-size:20px;line-height:1.25;fill:#999999"
         id="path929" />
      <path
         inkscape:connector-curvature="0"
         d="m 218.12138,790.61829 v -6.9043 q 0,-1.26953 -0.51758,-1.9043 -0.50781,-0.63476 -1.60156,-0.63476 -0.79102,0 -1.32813,0.2539 -0.53711,0.25391 -0.86914,0.75196 -0.32227,0.49804 -0.46875,1.2207 -0.13672,0.72266 -0.13672,1.66016 v 5.55664 h -1.77734 v -10.72266 h 1.44531 l 0.25391,1.44531 h 0.0977 q 0.24414,-0.41992 0.57617,-0.72265 0.3418,-0.3125 0.74219,-0.51758 0.40039,-0.20508 0.84961,-0.30274 0.44922,-0.0976 0.91797,-0.0976 1.78711,0 2.68555,0.9375 0.9082,0.92773 0.9082,2.97851 v 7.00196 z"
         style="font-size:20px;line-height:1.25;fill:#999999"
         id="path931" />
    </g>
    <g
       aria-label="papers"
       id="text5466"
       style="font-style:normal;font-variant:normal;font-weight:normal;font-stretch:normal;line-height:0%;font-family:'Droid Sans';-inkscape-font-specification:'Droid Sans';display:inline;fill:#808080;fill-opacity:1;stroke:none">
      <path
         inkscape:connector-curvature="0"
         d="m 135.52177,820.96149 q -1.03711,0 -1.88086,-0.22852 -0.84375,-0.22851 -1.5293,-0.59766 -0.66797,-0.38671 -1.19531,-0.89648 -0.50977,-0.50977 -0.91406,-1.07227 h -0.21094 q 0.0527,0.59766 0.10547,1.14258 0.0351,0.45703 0.0703,0.94922 0.0352,0.47461 0.0352,0.75586 v 8.24414 h -3.19922 v -27.94922 h 2.60156 l 0.45703,2.60157 h 0.14063 q 0.40429,-0.61524 0.91406,-1.14258 0.50976,-0.54492 1.17773,-0.93164 0.68555,-0.4043 1.5293,-0.63282 0.84375,-0.24609 1.89844,-0.24609 1.65234,0 3.00586,0.63281 1.35351,0.63282 2.30273,1.89844 0.9668,1.24805 1.49414,3.11133 0.52734,1.86328 0.52734,4.32422 0,2.47851 -0.52734,4.35937 -0.52734,1.86328 -1.49414,3.12891 -0.94922,1.26562 -2.30273,1.91601 -1.35352,0.63282 -3.00586,0.63282 z m -0.61524,-17.34961 q -1.33594,0 -2.26758,0.40429 -0.91406,0.4043 -1.49414,1.23047 -0.5625,0.82617 -0.84375,2.05664 -0.26367,1.23047 -0.29882,2.90039 v 0.72071 q 0,1.77539 0.22851,3.16406 0.24609,1.37109 0.80859,2.32031 0.58008,0.93164 1.5293,1.42383 0.94922,0.47461 2.37305,0.47461 2.37305,0 3.48047,-1.91602 1.125,-1.91601 1.125,-5.50195 0,-3.65625 -1.125,-5.4668 -1.10742,-1.81054 -3.51563,-1.81054 z"
         style="font-size:36px;line-height:1.25"
         id="path904" />
      <path
         inkscape:connector-curvature="0"
         d="m 158.77763,820.60992 -0.65039,-2.67187 h -0.14063 q -0.58008,0.79101 -1.16016,1.37109 -0.58007,0.5625 -1.26562,0.93164 -0.68555,0.36914 -1.5293,0.54493 -0.84375,0.17578 -1.95117,0.17578 -1.21289,0 -2.23242,-0.35157 -1.01953,-0.33398 -1.77539,-1.03711 -0.73828,-0.7207 -1.16016,-1.79296 -0.42187,-1.08985 -0.42187,-2.56641 0,-2.88281 2.02148,-4.42969 2.03906,-1.54687 6.1875,-1.6875 l 3.23438,-0.12304 v -1.2129 q 0,-1.17773 -0.26368,-1.96875 -0.24609,-0.79101 -0.73828,-1.26562 -0.47461,-0.49219 -1.19531,-0.70313 -0.70312,-0.21093 -1.61719,-0.21093 -1.45898,0 -2.72461,0.42187 -1.24804,0.42188 -2.4082,1.01953 l -1.125,-2.4082 q 1.30078,-0.70312 2.90039,-1.19531 1.59961,-0.49219 3.35742,-0.49219 1.79297,0 3.09375,0.36914 1.31836,0.35156 2.16211,1.14258 0.86133,0.77344 1.28321,1.98633 0.42187,1.21289 0.42187,2.93554 v 13.21875 z m -5.8711,-2.23242 q 1.07227,0 1.98633,-0.33398 0.91406,-0.33399 1.58203,-1.00196 0.66797,-0.68554 1.03711,-1.70507 0.38672,-1.03711 0.38672,-2.42578 v -1.74024 l -2.51367,0.12305 q -1.58203,0.0703 -2.6543,0.35156 -1.07226,0.28125 -1.72266,0.79102 -0.63281,0.49218 -0.91406,1.21289 -0.28125,0.70312 -0.28125,1.59961 0,1.61718 0.84375,2.37304 0.86133,0.75586 2.25,0.75586 z"
         style="font-size:36px;line-height:1.25"
         id="path906" />
      <path
         inkscape:connector-curvature="0"
         d="m 175.72294,820.96149 q -1.03711,0 -1.88086,-0.22852 -0.84375,-0.22851 -1.5293,-0.59766 -0.66797,-0.38671 -1.19531,-0.89648 -0.50977,-0.50977 -0.91406,-1.07227 h -0.21094 q 0.0527,0.59766 0.10547,1.14258 0.0352,0.45703 0.0703,0.94922 0.0352,0.47461 0.0352,0.75586 v 8.24414 h -3.19922 v -27.94922 h 2.60156 l 0.45703,2.60157 h 0.14063 q 0.40429,-0.61524 0.91406,-1.14258 0.50977,-0.54492 1.17773,-0.93164 0.68555,-0.4043 1.5293,-0.63282 0.84375,-0.24609 1.89844,-0.24609 1.65234,0 3.00586,0.63281 1.35351,0.63282 2.30273,1.89844 0.9668,1.24805 1.49414,3.11133 0.52735,1.86328 0.52735,4.32422 0,2.47851 -0.52735,4.35937 -0.52734,1.86328 -1.49414,3.12891 -0.94922,1.26562 -2.30273,1.91601 -1.35352,0.63282 -3.00586,0.63282 z m -0.61524,-17.34961 q -1.33593,0 -2.26757,0.40429 -0.91407,0.4043 -1.49414,1.23047 -0.5625,0.82617 -0.84375,2.05664 -0.26368,1.23047 -0.29883,2.90039 v 0.72071 q 0,1.77539 0.22851,3.16406 0.2461,1.37109 0.8086,2.32031 0.58007,0.93164 1.52929,1.42383 0.94922,0.47461 2.37305,0.47461 2.37305,0 3.48047,-1.91602 1.125,-1.91601 1.125,-5.50195 0,-3.65625 -1.125,-5.4668 -1.10742,-1.81054 -3.51563,-1.81054 z"
         style="font-size:36px;line-height:1.25"
         id="path908" />
      <path
         inkscape:connector-curvature="0"
         d="m 195.72684,820.96149 q -1.93359,0 -3.5332,-0.65039 -1.59961,-0.65039 -2.75976,-1.89844 -1.14258,-1.24805 -1.77539,-3.09375 -0.63282,-1.8457 -0.63282,-4.21875 0,-2.39063 0.58008,-4.27149 0.58008,-1.88086 1.63477,-3.18164 1.05468,-1.31836 2.51367,-2.0039 1.47656,-0.68555 3.25195,-0.68555 1.74024,0 3.12891,0.63281 1.38867,0.61524 2.35547,1.75782 0.96679,1.125 1.47656,2.7246 0.52734,1.58204 0.52734,3.51563 v 1.98633 h -12.16406 q 0.0879,3.39258 1.42383,4.99219 1.35351,1.5996 4.00781,1.5996 0.89649,0 1.65234,-0.0879 0.77344,-0.0879 1.47657,-0.24609 0.7207,-0.17578 1.38867,-0.42187 0.66797,-0.26368 1.35351,-0.58008 v 2.84765 q -0.70312,0.33399 -1.38867,0.58008 -0.66797,0.2461 -1.38867,0.4043 -0.70312,0.1582 -1.47656,0.22851 -0.75586,0.0703 -1.65235,0.0703 z m -0.79101,-17.34961 q -2.00391,0 -3.18164,1.37109 -1.16016,1.37109 -1.35352,3.99024 h 8.64844 q 0,-1.19532 -0.24609,-2.17969 -0.22852,-1.00196 -0.73828,-1.70508 -0.49219,-0.70313 -1.26563,-1.08984 -0.77344,-0.38672 -1.86328,-0.38672 z"
         style="font-size:36px;line-height:1.25"
         id="path910" />
      <path
         inkscape:connector-curvature="0"
         d="m 215.71317,800.95758 q 0.50977,0 1.14258,0.0527 0.63281,0.0352 1.08984,0.12305 l -0.42187,2.95313 q -0.49219,-0.0879 -1.01953,-0.14063 -0.50977,-0.0703 -0.9668,-0.0703 -1.10742,0 -2.02148,0.45703 -0.91407,0.43945 -1.58203,1.2832 -0.65039,0.82618 -1.01954,2.00391 -0.35156,1.16016 -0.35156,2.58398 v 10.40625 h -3.19922 v -19.30078 h 2.60157 l 0.38671,3.53321 h 0.14063 q 0.43945,-0.75586 0.93164,-1.45899 0.50977,-0.70312 1.125,-1.23047 0.63281,-0.54492 1.40625,-0.86133 0.77344,-0.33398 1.75781,-0.33398 z"
         style="font-size:36px;line-height:1.25"
         id="path912" />
      <path
         inkscape:connector-curvature="0"
         d="m 233.27372,815.31891 q 0,1.40625 -0.50977,2.46094 -0.50976,1.05468 -1.47656,1.77539 -0.94922,0.70312 -2.30273,1.05468 -1.35352,0.35157 -3.04102,0.35157 -1.91601,0 -3.28711,-0.31641 -1.37109,-0.29883 -2.4082,-0.89648 v -2.91797 q 0.54492,0.28125 1.21289,0.5625 0.66797,0.26367 1.40625,0.47461 0.73828,0.21093 1.51172,0.35156 0.79101,0.12305 1.56445,0.12305 1.14258,0 1.9336,-0.19336 0.80859,-0.19336 1.30078,-0.54493 0.50976,-0.36914 0.73828,-0.8789 0.22851,-0.52735 0.22851,-1.16016 0,-0.54492 -0.17578,-0.98437 -0.17578,-0.43946 -0.65039,-0.86133 -0.45703,-0.43945 -1.26562,-0.87891 -0.8086,-0.43945 -2.07422,-0.98437 -1.26563,-0.54492 -2.28516,-1.07227 -1.00195,-0.52734 -1.70508,-1.17773 -0.70312,-0.65039 -1.08984,-1.49414 -0.36914,-0.86133 -0.36914,-2.03907 0,-1.23046 0.47461,-2.17968 0.49219,-0.9668 1.37109,-1.61719 0.87891,-0.65039 2.10938,-0.98438 1.23047,-0.33398 2.74218,-0.33398 1.70508,0 3.11133,0.36914 1.42383,0.36914 2.68946,0.9668 l -1.10743,2.58398 q -1.14257,-0.50976 -2.35546,-0.8789 -1.19532,-0.38672 -2.44336,-0.38672 -1.79297,0 -2.6543,0.59765 -0.86133,0.58008 -0.86133,1.66993 0,0.61523 0.19336,1.07226 0.21094,0.45703 0.70313,0.86133 0.49218,0.4043 1.31835,0.82617 0.82618,0.4043 2.05665,0.91406 1.26562,0.52735 2.25,1.05469 1.00195,0.52734 1.70507,1.19531 0.70313,0.65039 1.07227,1.49414 0.36914,0.84375 0.36914,2.02149 z"
         style="font-size:36px;line-height:1.25"
         id="path914" />
    </g>
  </g>
  <g
     inkscape:groupmode="layer"
     id="layer4"
     inkscape:label="lights"
     style="display:inline"
     transform="translate(-39.068654,-735.50146)">
    <rect
       style="display:inline;fill:url(#linearGradient2908);fill-opacity:1;fill-rule:evenodd;stroke:none"
       id="rect5289-51-5"
       width="44.285717"
       height="68.571442"
       x="77.14286"
       y="753.79077" />
    <rect
       style="display:inline;fill:url(#linearGradient3736);fill-opacity:1;fill-rule:evenodd;stroke:none"
       id="rect5289-51"
       width="44.285717"
       height="68.571442"
       x="57.85714"
       y="740.93365" />
    <rect
       style="display:inline;fill:url(#linearGradient3732);fill-opacity:1;fill-rule:evenodd;stroke:none"
       id="rect5289-51-4"
       width="44.285717"
       height="68.571442"
       x="44.485798"
       y="771.51288" />
  </g>
</svg>
